HIERARCHY
ROOT Hips
{
	OFFSET 0.000000 0.000000 0.000000
	CHANNELS 6 Xposition Yposition Zposition Zrotation Yrotation Xrotation 
	JOINT LHipJoint
	{
		OFFSET 0.000000 0.000000 0.000000
		CHANNELS 3 Zrotation Yrotation Xrotation
		JOINT LeftUpLeg
		{
			OFFSET 1.363060 -1.794630 0.839290
			CHANNELS 3 Zrotation Yrotation Xrotation
			JOINT LeftLeg
			{
				OFFSET 2.448110 -6.726130 0.000000
				CHANNELS 3 Zrotation Yrotation Xrotation
				JOINT LeftFoot
				{
					OFFSET 2.562200 -7.039590 0.000000
					CHANNELS 3 Zrotation Yrotation Xrotation
					JOINT LeftToeBase
					{
						OFFSET 0.157640 -0.433110 2.322550
						CHANNELS 3 Zrotation Yrotation Xrotation
						End Site
						{
							OFFSET 0.000000 0.000000 0.000000
						}
					}
				}
			}
		}
	}
	JOINT RHipJoint
	{
		OFFSET 0.000000 0.000000 0.000000
		CHANNELS 3 Zrotation Yrotation Xrotation
		JOINT RightUpLeg
		{
			OFFSET -1.305520 -1.794630 0.839290
			CHANNELS 3 Zrotation Yrotation Xrotation
			JOINT RightLeg
			{
				OFFSET -2.542530 -6.985550 0.000000
				CHANNELS 3 Zrotation Yrotation Xrotation
				JOINT RightFoot
				{
					OFFSET -2.568260 -7.056230 0.000000
					CHANNELS 3 Zrotation Yrotation Xrotation
					JOINT RightToeBase
					{
						OFFSET -0.164730 -0.452590 2.363150
						CHANNELS 3 Zrotation Yrotation Xrotation
						End Site
						{
							OFFSET 0.000000 0.000000 0.000000
						}
					}
				}
			}
		}
	}
}
MOTION
Frames: 17
Frame Time: 0.008333
23.902609 15.356522 4.742647 -6.692632 -86.298228 36.117695 -13.468570 4.398711 -0.492553 2.731217 9.019855 1.247687 -1.022795 0.632182 13.288358 0.950770 6.362790 7.009159 1.317600 0.000000 -87.414300 7.469928 2.090708 3.460245 5.154029 5.922657 -75.817936 0.347887 -4.289360 54.163850 -2.035387 -6.742096 -7.559756 -0.789900 0.000000 -39.693300
23.646514 15.390789 4.710209 -8.417675 -86.391775 38.074819 -13.674038 4.439564 -0.376051 3.002790 8.718429 0.031204 -0.807150 0.835661 15.708651 1.114201 7.024992 9.713133 1.689800 0.000000 -86.297700 7.325539 2.033082 3.382441 5.587199 6.239382 -75.191062 0.317259 -4.237733 54.824408 -2.161157 -7.081662 -8.683664 -0.638200 -0.000000 -39.075000
23.392673 15.432905 4.675409 -9.756468 -86.517366 39.637794 -13.845418 4.432082 -0.261399 3.136568 8.378936 -1.371494 -0.607002 1.011793 18.422403 1.298653 7.722060 12.184776 2.087700 -0.000000 -83.721200 7.203790 1.955558 3.306686 6.036539 6.488860 -74.435699 0.326216 -4.175684 55.237268 -2.259704 -7.263441 -9.877421 -0.452100 -0.000000 -38.631700
23.141681 15.482456 4.638177 -10.628682 -86.673261 40.719684 -13.967518 4.379905 -0.154957 3.117344 8.010055 -2.947359 -0.436078 1.163141 21.406126 1.490092 8.444098 14.291677 2.499200 0.000000 -79.771900 7.117262 1.865496 3.233285 6.478094 6.653534 -73.556203 0.370486 -4.106044 55.409936 -2.328053 -7.284742 -11.088835 -0.247401 0.000000 -38.361900
22.893887 15.539112 4.599357 -11.159486 -86.857628 41.445460 -14.047640 4.289749 -0.063344 2.966217 7.648147 -4.695611 -0.301872 1.298829 24.625914 1.673860 9.168605 15.931766 2.903001 -0.000000 -74.773600 7.060719 1.762751 3.164000 6.913506 6.739142 -72.554751 0.446320 -4.026889 55.341120 -2.367526 -7.164690 -12.261566 -0.042800 -0.000000 -38.263100
22.649495 15.602524 4.559493 -11.410538 -87.067500 41.868379 -14.088296 4.170494 0.005556 2.696037 7.319250 -6.596119 -0.203447 1.430221 28.020031 1.840430 9.896250 17.058940 3.285800 -0.000000 -69.232200 7.032507 1.649094 3.098576 7.336527 6.748526 -71.431518 0.548740 -3.937283 55.035525 -2.380142 -6.926686 -13.346728 0.145700 0.000001 -38.322700
22.408721 15.672410 4.519295 -11.489099 -87.299884 42.092004 -14.098377 4.029837 0.046710 2.325984 7.043830 -8.625133 -0.132665 1.567239 31.515057 1.986078 10.634308 17.679036 3.639200 -0.000000 -63.688100 7.025656 1.524114 3.036491 7.745851 6.692511 -70.186386 0.672775 -3.835030 54.496370 -2.370230 -6.603037 -14.305764 0.306700 0.000001 -38.516800
22.171554 15.748499 4.479363 -11.494364 -87.553250 42.212321 -14.086491 3.873031 0.057542 1.872519 6.831726 -10.751356 -0.078280 1.715620 35.031640 2.112217 11.396327 17.834277 3.960500 0.000000 -58.576600 7.033035 1.387726 2.976264 8.138202 6.584084 -68.817513 0.813399 -3.717839 53.727953 -2.342995 -6.227621 -15.114095 0.434300 -0.000000 -38.808701
21.937514 15.830559 4.440095 -11.521652 -87.827558 42.321726 -14.060746 3.702550 0.038255 1.350105 6.684534 -12.941855 -0.029760 1.876358 38.491568 2.223502 12.196037 17.587727 4.249900 0.000001 -54.219800 7.047161 1.240171 2.916548 8.509342 6.438741 -67.322898 0.965860 -3.583202 52.733897 -2.304407 -5.834462 -15.760780 0.528300 0.000000 -39.153500
21.706688 15.918318 4.401791 -11.675072 -88.121897 42.522906 -14.029091 3.518327 -0.008951 0.773556 6.599605 -15.168561 0.020024 2.047084 41.825189 2.324854 13.036130 16.999451 4.503100 -0.000000 -50.717900 7.059580 1.081368 2.856986 8.855088 6.274630 -65.701569 1.126066 -3.428408 51.515892 -2.260855 -5.455626 -16.247131 0.592000 -0.000000 -39.502400
21.477969 16.011380 4.364530 -12.043447 -88.435170 42.908191 -13.997144 3.319469 -0.079842 0.155665 6.568781 -17.406956 0.074418 2.222894 44.968411 2.420768 13.911674 16.127120 4.713300 0.000000 -48.038400 7.063034 0.911385 2.798763 9.169904 6.110436 -63.954894 1.290582 -3.251051 50.075108 -2.218271 -5.117731 -16.584232 0.631300 0.000000 -39.808400
21.251001 16.109141 4.328263 -12.710596 -88.763785 43.567608 -13.968670 3.104601 -0.169166 -0.491382 6.580980 -19.638879 0.133302 2.398116 47.868185 2.513890 14.805482 15.013869 4.867800 0.000000 -46.035800 7.051079 0.729985 2.744507 9.448641 5.964432 -62.086086 1.456866 -3.049069 48.410834 -2.181809 -4.841327 -16.789284 0.652400 -0.000000 -40.033400
21.025059 16.210914 4.292725 -13.736031 -89.102070 44.566339 -13.943806 2.872332 -0.270192 -1.158469 6.617648 -21.848360 0.194702 2.566056 50.476442 2.606447 15.698477 13.714306 4.958600 0.000000 -44.582900 7.020031 0.537698 2.697541 9.684910 5.852063 -60.099311 1.622845 -2.821164 46.522207 -2.155224 -4.640125 -16.880913 0.660800 -0.000000 -40.150300
20.799536 16.315747 4.257578 -15.146974 -89.440731 45.939369 -13.919505 2.622145 -0.375484 -1.838307 6.656707 -24.023666 0.255354 2.720115 52.757324 2.699149 16.566051 12.280121 4.978700 0.000000 -43.574100 6.969453 0.335781 2.661946 9.871769 5.784686 -58.000669 1.786920 -2.566806 44.408292 -2.140567 -4.520764 -16.875901 0.660500 -0.000000 -40.149100
20.573319 16.422486 4.222346 -16.907135 -89.768949 47.660503 -13.888327 2.355055 -0.477729 -2.526403 6.672963 -26.158098 0.311552 2.854396 54.688420 2.791561 17.382076 10.763165 4.926001 0.000000 -42.904700 6.903951 0.127759 2.641318 10.002156 5.768157 -55.798745 1.947417 -2.286333 42.070599 -2.138198 -4.484176 -16.786746 0.653500 0.000001 -40.035300
20.346105 16.529923 4.186558 161.062698 -89.923367 -130.347427 -13.841151 2.075486 -0.569484 -3.218568 6.644575 -28.246088 0.359564 2.965141 56.264153 2.881358 18.115614 9.197645 4.797800 0.000000 -42.313500 6.831572 -0.081069 2.639244 10.071271 5.803879 -53.498794 2.101789 -1.980062 39.513074 -2.147039 -4.528476 -16.617770 0.639999 -0.000000 -39.835500
20.117446 16.636564 4.149642 159.004939 -89.642712 -128.316443 -13.763172 1.791137 -0.645175 -3.916677 6.547014 -30.289228 0.395943 3.050520 57.487673 2.967284 18.749120 7.636414 4.606100 0.000000 -41.760600 6.768231 -0.278776 2.655439 10.072124 5.885453 -51.116170 2.246241 -1.649517 36.750931 -2.163934 -4.645130 -16.369011 0.618699 0.000000 -39.580100
